/* XPM */
static char *_4c2339a11214e23ae4e7c6e62387848gKzvv9etNfPP64Rl[] = {
/* columns rows colors chars-per-pixel */
"32 32 115 2 ",
"   c None",
".  c black",
"X  c #010100",
"o  c #020200",
"O  c #030200",
"+  c #040300",
"@  c #050400",
"#  c #060500",
"$  c #070500",
"%  c #080600",
"&  c #090700",
"*  c #0A0800",
"=  c #0B0800",
"-  c #0C0900",
";  c #0D0A00",
":  c #0E0B00",
">  c #0F0B00",
",  c #100C00",
"<  c #110D00",
"1  c #120E00",
"2  c #130E00",
"3  c #130F00",
"4  c #130F01",
"5  c #151000",
"6  c #171100",
"7  c #171200",
"8  c #171201",
"9  c #181200",
"0  c #191200",
"q  c #181201",
"w  c #191301",
"e  c #191400",
"r  c #1A1400",
"t  c #1C1501",
"y  c #1E1701",
"u  c #211801",
"i  c #211901",
"p  c #221A00",
"a  c #221A01",
"s  c #201802",
"d  c #241B00",
"f  c #241B01",
"g  c #251C01",
"h  c #261D01",
"j  c #271D01",
"k  c #271E01",
"l  c #251E02",
"z  c #281E01",
"x  c #2A2001",
"c  c #2D2101",
"v  c #2D2201",
"b  c #2D2202",
"n  c #2F2402",
"m  c #302402",
"M  c #3C2D02",
"N  c #3D2E02",
"B  c #3E2F02",
"V  c #403002",
"C  c #493702",
"Z  c #4A3802",
"A  c #4C3A02",
"S  c #554002",
"D  c #564102",
"F  c #5C4603",
"G  c #5D4603",
"H  c #5E4703",
"J  c #5F4803",
"K  c #6D5203",
"L  c #6E5303",
"P  c #6F5403",
"I  c #705503",
"U  c #7B5D03",
"Y  c #7C5E03",
"T  c #7F6003",
"R  c #826204",
"E  c #836304",
"W  c #906D04",
"Q  c #936F04",
"!  c #947004",
"~  c #957104",
"^  c #967204",
"/  c #977204",
"(  c #987304",
")  c #9B7504",
"_  c #9C7604",
"`  c #9F7804",
"'  c #AD8305",
"]  c #AE8405",
"[  c #B28705",
"{  c #B48805",
"}  c #B58905",
"|  c #B68A05",
" . c #B78B05",
".. c #BB8E05",
"X. c #CE9C06",
"o. c #D09D06",
"O. c #D8A306",
"+. c #DBA606",
"@. c #DEA806",
"#. c #DFA906",
"$. c #E0AA06",
"%. c #E1AA06",
"&. c #E2AB06",
"*. c #E3AC06",
"=. c #E7AF06",
"-. c #E8B006",
";. c #F1B607",
":. c #F2B707",
">. c #F7BB07",
",. c #FABD07",
"<. c #FBBE07",
"1. c #FCBF07",
"2. c #FDBF07",
"3. c #FEC007",
"4. c #FFC107",
/* pixels */
"                                                                ",
"                              . .                               ",
"                            1 . . 1                             ",
"                            . k k .                             ",
"                          y . ! W . y                           ",
"                          . ; ;.;.; .                           ",
"                        k . P 4.4.K . k                         ",
"                        $ . O.4.4.+.. $                         ",
"                      u . Z 4.4.4.4.C . k                       ",
"                      1 .  .4.4.4.4. .. 1                       ",
"              c n c u . k 2.4.4.4.4.2.k . u c m c               ",
"  1 + . . . . . . . . . ' 4.4.4.4.4.4.' . . . . . . . . . + 1   ",
"+ . . 1 z B D K E _ [ &.4.4.4.4.4.4.4.4.&.[ ) E K D B z ; . . + ",
"* . x &.4.4.4.4.4.4.4.4.4.4.4.4.4.4.4.4.4.4.4.4.4.4.4.4.&.x . * ",
"  1 . w X.4.4.4.4.4.4.4.4.4.4.4.4.4.4.4.4.4.4.4.4.4.4.X.w . 1   ",
"    w . ;  .4.4.4.4.4.4.4.4.4.4.4.4.4.4.4.4.4.4.4.4...; . 6     ",
"      6 . . ! 4.4.4.4.4.4.4.4.4.4.4.4.4.4.4.4.4.4.` $ . 6       ",
"        w . . K 4.4.4.4.4.4.4.4.4.4.4.4.4.4.4.4.T . . 6         ",
"            . . F 2.4.4.4.4.4.4.4.4.4.4.4.4.,.J . .             ",
"              % . ( 4.4.4.4.4.4.4.4.4.4.4.4.! . %               ",
"              d . Y 4.4.4.4.4.4.4.4.4.4.4.4.U . u               ",
"              u . ] 4.4.4.4.4.4.4.4.4.4.4.4.' . u               ",
"              % . =.4.4.4.4.4.4.4.4.4.4.4.4.-.. %               ",
"              . d 4.4.4.4.4.4.4.4.4.4.4.4.4.4.u .               ",
"              . F 4.4.4.4.4.#.I I &.4.4.4.4.4.F .               ",
"            k . ! 4.4.4.,.W ; . . % T >.4.4.4.! . k             ",
"            1 . o.4.4. .d . . y w . . d  .4.4.o.. 1             ",
"            . ; 2.*.F . . 1         1 . . A #.2.; .             ",
"            . V W * . $ 1               % . % T B .             ",
"            . . . . e                     e . . . .             ",
"            . . 1                             1 . .             ",
"                                                                "
};
