/* XPM */
static char *a37ef15cedbc4950ccac9ed675c69bf13O5913s4zpMwSt8L[] = {
/* columns rows colors chars-per-pixel */
"30 31 221 2 ",
"   c #0C0905",
".  c #161108",
"X  c #1B140E",
"o  c #1E1A12",
"O  c #2A140B",
"+  c #3E1F10",
"@  c #342413",
"#  c #3D3414",
"$  c #39372D",
"%  c #591917",
"&  c #7C181A",
"*  c #44331C",
"=  c #753316",
"-  c #633C24",
";  c #494228",
":  c #524D35",
">  c #68592A",
",  c #736827",
"<  c #6A6237",
"1  c #841A1B",
"2  c #8E2F19",
"3  c #911F22",
"4  c #882C2A",
"5  c #9B2324",
"6  c #93292B",
"7  c #8B3932",
"8  c #A62425",
"9  c #AC2928",
"0  c #B42A2A",
"q  c #BD2D2E",
"w  c #A93131",
"e  c #BE3131",
"r  c #C92E2D",
"t  c #C6312D",
"y  c #C82F31",
"u  c #C63535",
"i  c #CB3233",
"p  c #C73B39",
"a  c #D43433",
"s  c #D43A3A",
"d  c #DB3B3C",
"f  c #E33F3F",
"g  c #8E401C",
"h  c #98461B",
"j  c #AB501F",
"k  c #994F29",
"l  c #8A562B",
"z  c #945330",
"x  c #B54F2D",
"c  c #A95527",
"v  c #BB572B",
"b  c #88712F",
"n  c #987832",
"m  c #BC6326",
"M  c #BE6A2C",
"N  c #B56C31",
"B  c #C36729",
"V  c #CC6B2B",
"C  c #CF772F",
"Z  c #D3722C",
"A  c #D6792F",
"S  c #C66C34",
"D  c #C87238",
"F  c #D87730",
"G  c #D57A34",
"H  c #9C3D41",
"J  c #BF3F42",
"K  c #DF3E41",
"L  c #A95356",
"P  c #BE5250",
"I  c #8E7E47",
"U  c #A8694B",
"Y  c #B57251",
"T  c #B15F61",
"R  c #9B6F61",
"E  c #AB6A69",
"W  c #BD696C",
"Q  c #A87964",
"!  c #AA7679",
"~  c #C84647",
"^  c #D74547",
"/  c #DA5253",
"(  c #E34143",
")  c #E3484B",
"_  c #E84D54",
"`  c #E3545D",
"'  c #E8515A",
"]  c #E75A64",
"[  c #D26769",
"{  c #DB7679",
"}  c #E5606C",
"|  c #91833E",
" . c #9C853A",
".. c #A48C35",
"X. c #AA9539",
"o. c #BDA43D",
"O. c #C88933",
"+. c #D08A32",
"@. c #CD9536",
"#. c #D39A36",
"$. c #D39D38",
"%. c #E28434",
"&. c #E98B36",
"*. c #E6893A",
"=. c #E68A3A",
"-. c #EA8E3B",
";. c #EB913C",
":. c #E3993D",
">. c #C9A43D",
",. c #DBA53B",
"<. c #DEAB3E",
"1. c #E5AF3E",
"2. c #E6B33F",
"3. c #ECB93F",
"4. c #938844",
"5. c #9C8B43",
"6. c #AC9A44",
"7. c #AB9848",
"8. c #B6A447",
"9. c #BEA852",
"0. c #908C7C",
"q. c #B79279",
"w. c #C89449",
"e. c #D68B54",
"r. c #E38A42",
"t. c #E69859",
"y. c #C8AA47",
"u. c #D9A945",
"i. c #C8B64A",
"p. c #CCB549",
"a. c #D8B748",
"s. c #CFAF5E",
"d. c #DDB255",
"f. c #E4B341",
"g. c #E6BA45",
"h. c #EBBD45",
"j. c #E2B64B",
"k. c #E3B94B",
"l. c #E7BA57",
"z. c #D4936A",
"x. c #C0B06E",
"c. c #D3B060",
"v. c #E3BB6D",
"b. c #E6AB7A",
"n. c #D9C54C",
"m. c #DCC752",
"M. c #ECC34C",
"N. c #E5C94E",
"B. c #EDC94E",
"V. c #F1C54A",
"C. c #F3CD4E",
"Z. c #E9D64F",
"A. c #F5D14F",
"S. c #EBC654",
"D. c #F1C750",
"F. c #F3CC55",
"G. c #E9D355",
"H. c #F9D751",
"J. c #F4DB53",
"K. c #F9DB51",
"L. c #F7D958",
"P. c #FCE454",
"I. c #FFE956",
"U. c #FDE65A",
"Y. c #FEEA5B",
"T. c #EBC765",
"R. c #F2D96C",
"E. c #E5C574",
"W. c #EED17A",
"Q. c #FCE763",
"!. c #AC7F82",
"~. c #DC7981",
"^. c #AB8E8B",
"/. c #B7968A",
"(. c #B0A889",
"). c #B4AFAC",
"_. c #D88484",
"`. c #C39087",
"'. c #CDB684",
"]. c #E6B991",
"[. c #C9AEA8",
"{. c #D2B3A3",
"}. c #C9BDBB",
"|. c #DBB2B4",
" X c #D8B7B8",
".X c #E6BEA1",
"XX c #DCC48E",
"oX c #DBC594",
"OX c #F2D884",
"+X c #E0CF9F",
"@X c #F6E998",
"#X c #DAC8A9",
"$X c #CCCABE",
"%X c #D6C3BA",
"&X c #E9D7A8",
"*X c #F0DDA1",
"=X c #E5CBB7",
"-X c #E5DAB8",
";X c #F4EAA7",
":X c #EDE0B5",
">X c #C6C7C7",
",X c #D8C6C4",
"<X c #DCCECF",
"1X c #DED5C2",
"2X c #CFD1D1",
"3X c #D3D4D4",
"4X c #DCD7D2",
"5X c #DDDCDC",
"6X c #E0C1C1",
"7X c #E5DAC8",
"8X c #E3D4D4",
"9X c #E2DBD2",
"0X c #E3DDDC",
"qX c #EAE4CA",
"wX c #E8E5DB",
"eX c #DFE1E1",
"rX c #E6E6E6",
"tX c #E8E8E3",
"yX c #E6E7E8",
"uX c #E7E8E9",
"iX c #E8E8E9",
/* pixels */
"rXrXrXrXrXrXrXrXrXrXrXrXrXyX5X).5XiXiXrXrXrXrXrXrXrXrXrXrXrX",
"rXrXrXrXrXrXrXrXrXrXrXrXyX4X'.I +XqX$X0.>XiXrXrXrXrXrXrXrXrX",
"rXrXrXrXrXrXrXrXrXrXrXuX1Xx.n.7.S.9.7.8.(.wXrXrXrXrXrXrXrXrX",
"yXyXrXrXrXrXrXrXrXrXtX;Xs.: 6.J.J.p.N.B.5.W.qXrXrXrXrXrXrXrX",
"=X7XrXrXrXrXrXrXrXtX@Xm.: $ a.I.J.5.p.H.y.M.T.7XrXrXrXrXrXrX",
"r.D %XiXiXrXrXrXrX;XU.i.; < J.I.8.6.K.K.H.C.M.E.wXrXrXrXrXrX",
"t.V z..X%XrXrXyXqXQ.J.8.< 8.Y.G.| J.P.K.H.A.M.a.oXrXrXrXrXrX",
".Xr.=.%.S `.rXrX@XP.m.: 4.G.Y.8.| 8.i.K.H.A.B.k.c.9XrXrXrXrX",
"].;.-.%.m c %XwXR.P.J.p.J.A.M.9.5.6.p.K.H.A.B.k.y.#XyXrXrXrX",
"t.&.;.=.B h /.qX| n.I.I.C.<.,.F.U.I.P.K.H.A.M.j.u.oXrXrXrXrX",
"b.&.-.=.B h Q -X; # X.Z.J.<.g.L.Q.U.P.K.H.C.M.j.d.XXrXrXrXrX",
"=X=.%.%.m 2 R qX>   . # , ..y.n.m.n.a.o...a.M.j.k.T.&XwXrXrX",
"0Xt.Z B h = q.*X .X . O % % O + @ o .   # a.g.u.u.h.D.W.qXrX",
"yX{.v g = l ,.M.a.* X 4 s u 9 0 5 O   X ..h.<.$.@.u.V.V.&XiX",
"rXrX}././.#Xv.E.OXX.@ 6 ) / ^ ^ p % o b g.2.$.O.M G :.l.qXyX",
"rXrXiXiXiXiXwXrXwXR...- w ~ ^ ~ 4 * n g.2.,.+.C Z V V e.9XrX",
"rXrXrXrXrXrXrXrXrX:XF.u.n l l l n >.h.2.,.+.A %.=.%.v k %XiX",
"rXrXrXrXrXrXrXrXrXrX&XS.h.h.g.g.h.2.,.#.O.C %.&.-.%.m Q 0XrX",
"rXrXrXrXrXrXrXrXrXrXrX-Xd.,.,.,.$.@.O.N S F %.;.;.A c [.iXrX",
"rXrXrXrXrXrXrXrXrXrXrXyX&Xf.@.w.w.#.@.w.D Z %.-.=.B k %XiXrX",
"rXrXrXrXrXrXrXrXrXrXrXyXqXF.1.'.1XT.3.c.Y M V F V h g %XiXrX",
"rXrXrXrXrXrXrXrXrXrXrXrX%Xl.f.N E v.V.O.7 E U j c h z 4XrXrX",
"rXrXrXrXrXrXrXrXrXrXrX8XP v v 3 & x S x 8 L ,Xq.U U [.rXrXrX",
"rXrXrXrXrXrXrXrXrXrXrX0X[ r q 5 & r a y 0 H <XiX5X0XrXrXrXrX",
"rXrXrXrXrXrXrXrXrXrX8X8X_.r q 5 & 0 a i q w [.iXrXrXrXrXrXrX",
"rXrXrXrXrXrXrXrX8X_./ ~ p t q 8 1 9 d s i 0 `.yXrXrXrXrXrXrX",
"rXrXrXrXrXrXrX0X{ s d d a i t 0 5 e f ( d s ~  XrXrXrXrXrXrX",
"rXrXrXrXrXrXrX6X^ ) ' ( d i q 8 5 d _ _ ) ( u W 3X5X5X5XrXrX",
"rXrXrXrXrXrXrX|.d _ ' K i 0 8 3 6 d ' ] ' ( u L ).>X>X3X3X5X",
"rXrXrXrXrXrXrX<X_.{ ~.[ W E ! ^.!./ ` } ] ^ J T }.2X3X5X5XrX",
"rXrXrXrXrXrXrXrXrXrX0X5X5XeXrXrX5X,X X|.|.|. X<XrXrXrXrXrXrX"
};
